Girl.with.a.Pearl.Earring.2003.BRRip.x264.aac.mp4.anoXmous

Format                           : MPEG-4
Format profile                   : Base Media
Codec ID                         : isom
File size                        : 698 MiB
Duration                         : 1h 39mn
Overall bit rate mode            : Variable
Overall bit rate                 : 976 Kbps


Video
ID                               : 1
Format                           : AVC
Format/Info                      : Advanced Video Codec
Format profile                   : High@L4.1
Format settings, CABAC           : Yes
Format settings, ReFrames        : 4 frames
Codec ID                         : avc1
Codec ID/Info                    : Advanced Video Coding
Duration                         : 1h 39mn
Bit rate                         : 909 Kbps
Maximum bit rate                 : 7 420 Kbps
Width                            : 1 274 pixels
Height                           : 540 pixels
Display aspect ratio             : 2.35:1
Frame rate mode                  : Constant
Frame rate                       : 23.976 fps
Color space                      : YUV
Chroma subsampling               : 4:2:0
Bit depth                        : 8 bits
Scan type                        : Progressive
Bits/(Pixel*Frame)               : 0.055
Stream size                      : 650 MiB (93%)
Writing library                  : x264 core 120 r2120 0c7dab9

Audio
ID                               : 2
Format                           : AAC
Format/Info                      : Advanced Audio Codec
Format profile                   : LC
Codec ID                         : 40
Duration                         : 1h 39mn
Bit rate mode                    : Variable
Bit rate                         : 64.3 Kbps
Maximum bit rate                 : 91.9 Kbps
Channel(s)                       : 2 channels
Channel positions                : Front: L R
Sampling rate                    : 48.0 KHz 
Compression mode                 : Lossy
Stream size                      : 46.0 MiB (7%)
Language                         : English

                              SUB:
Girl.with.a.Pearl.Earring.2003.BRRip.x264.aac.mp4.anoXmous_swe.srt
 
http://www.imdb.com/title/tt0335119/

 +++++++ This work very fine with PSP and XBOX :) +++++++++